<svg preserveAspectRatio="none" overflow="visible" style="display: block;" width="64" height="58.9548" viewBox="0 0 64 58.9548" fill="none" xmlns="http://www.w3.org/2000/svg">
<g id="Oklahoma_City_Thunder 1" clip-path="url(#clip0_3071_90551)">
<path id="Vector" d="M10.3708 24.728L12.1771 23.856L4.51582 8.12847L6.32214 7.22531L5.45012 5.45012L0 8.09733L0.872019 9.90365L2.67835 9.00049L10.3708 24.728ZM14.3883 22.7659L16.3192 22.1431L13.6097 13.8277L15.5406 13.2049L18.2501 21.5202L20.181 20.8973L14.1703 2.33577L12.2394 2.95864L14.9489 11.274L13.018 11.8968L10.2774 3.58151L8.34647 4.20438L14.3883 22.7659ZM24.5411 0.373723L22.5479 0.685158L25.2886 17.9387L23.2954 18.2501L20.5547 0.996594L18.5616 1.30803L21.1776 17.7207C21.3015 18.5136 21.7353 19.2249 22.3836 19.698C23.0319 20.171 23.8416 20.3672 24.6346 20.2433C25.4275 20.1194 26.1387 19.6856 26.6118 19.0373C27.0849 18.389 27.2811 17.5793 27.1572 16.7864L24.5411 0.373723ZM28.8078 19.4959L30.8321 19.527L30.9256 13.89C30.9878 12.1771 30.8633 8.68907 30.7698 7.0696H30.8321C31.3616 11.4297 32.327 15.4784 32.9499 19.5893L34.8808 19.6205L35.2234 0.124574L33.199 0.0622871L33.1056 5.73041C33.0433 7.44331 33.1679 10.9002 33.2613 12.5509H33.199C32.6696 8.19076 31.7041 4.14209 31.0813 0.0311436L29.1504 0L28.8078 19.4959ZM36.3757 19.6204L40.362 20.2433C40.622 20.2883 40.8882 20.2811 41.1454 20.2223C41.4025 20.1634 41.6454 20.054 41.8598 19.9004C42.0743 19.7468 42.2561 19.5521 42.3946 19.3276C42.5331 19.1031 42.6256 18.8533 42.6667 18.5927L45.0959 3.33236C45.1745 2.80075 45.0428 2.25944 44.7288 1.82333C44.4148 1.38722 43.9432 1.09065 43.4141 0.996594L39.3966 0.373723L36.3757 19.6204ZM41.1095 2.70949L43.1027 3.02093L40.6735 18.2813L38.6803 17.9698L41.1095 2.70949ZM55.311 4.26667L51.4803 3.02093C51.2271 2.93187 50.9583 2.89529 50.6905 2.91342C50.4227 2.93155 50.1614 3.00401 49.9224 3.12638C49.6835 3.24876 49.472 3.41849 49.3008 3.62523C49.1296 3.83198 49.0022 4.07141 48.9265 4.32895L44.1616 18.9976C44.0725 19.2508 44.0359 19.5195 44.0541 19.7873C44.0722 20.0552 44.1446 20.3165 44.267 20.5554C44.3894 20.7943 44.5591 21.0059 44.7659 21.1771C44.9726 21.3483 45.212 21.4756 45.4696 21.5513L49.3002 22.7971L49.9231 20.8662L46.0613 19.6204L48.1479 13.236L51.0131 14.1703L51.636 12.2706L48.7708 11.3363L50.8574 4.95183L54.6881 6.19757L55.311 4.26667ZM50.1723 23.202L58.7367 5.63698L62.3805 7.41217C62.6224 7.52573 62.8391 7.68666 63.0177 7.88544C63.1963 8.08422 63.3332 8.31681 63.4203 8.56945C63.5075 8.82208 63.543 9.08962 63.5249 9.35624C63.5068 9.62286 63.4353 9.88313 63.3148 10.1217L60.1693 16.5995C59.7645 17.4404 59.0482 17.783 58.2696 17.4092L56.0895 26.0672L54.2832 25.1951L56.4321 16.4749L55.8404 16.1947L52.0097 24.074L50.1723 23.202ZM59.671 8.37762L56.7124 14.4195L58.5499 15.3226L61.5085 9.24964L59.671 8.37762Z" fill="#002D62"/>
<path id="Vector_2" d="M3.58151 58.9548C7.51002 55.4886 11.7184 52.3532 16.1635 49.5805C17.0355 49.1445 17.9075 48.7085 18.7796 48.2725C19.1221 48.1168 19.8384 47.7742 20.7105 47.3382C21.3333 48.0234 21.9251 48.6774 22.5791 49.3003C15.9455 52.3835 9.59221 55.6224 3.58151 58.9548ZM50.8886 35.3168C55.2076 34.3497 59.5887 33.6837 64 33.3236C59.2973 34.7562 54.5012 36.3445 49.674 38.1197C50.11 37.2166 50.4837 36.2822 50.8886 35.3168Z" fill="#007AC1"/>
<path id="Vector_3" d="M0.311436 45.8433C4.8854 42.9735 9.68725 40.484 14.6686 38.4C14.8243 38.7426 15.0112 39.0852 15.1981 39.4277C14.9178 39.9883 14.6375 40.5801 14.3572 41.1406C9.52993 42.6355 4.82725 44.1927 0.311436 45.8433ZM52.726 29.8044C56.4737 29.6518 60.2269 29.7038 63.9689 29.9601C60.0759 30.5207 56.1207 31.1436 52.1032 31.891C52.3212 31.2058 52.5392 30.5207 52.726 29.8044Z" fill="#F05133"/>
<path id="Vector_4" d="M32.1401 23.6068C39.4589 23.6068 45.1893 25.3197 51.6983 28.5586C48.5217 40.4866 42.6978 48.5528 32.1401 55.0618C28.1849 52.6015 24.7903 49.8608 21.9873 46.7465C23.2331 46.1547 24.6346 45.4696 25.8803 44.909C26.4097 44.9401 26.8769 44.9713 27.344 44.9713C27.3467 45.5516 27.1233 46.1101 26.7212 46.5285C26.9392 46.7776 27.126 46.9956 27.344 47.2136C27.9046 46.7153 28.2472 45.999 28.2783 44.9713C29.5144 44.9701 30.7466 44.8344 31.9533 44.5664C31.9221 46.4662 31.6419 47.8365 31.1124 48.3971C31.1083 48.397 31.1042 48.3977 31.1004 48.3993C31.0966 48.4008 31.0931 48.4031 31.0902 48.406C31.0873 48.4089 31.085 48.4124 31.0835 48.4162C31.0819 48.42 31.0812 48.4241 31.0813 48.4282C30.9653 48.5515 30.8404 48.666 30.7075 48.7708C31.237 48.6774 31.7664 48.5528 32.2336 48.4282C32.8876 47.089 32.8876 44.7533 32.8876 44.3484C34.1022 44.037 35.1611 43.7255 36.1265 43.4141C36.1577 44.5041 36.6248 45.5319 37.4657 45.9367C37.8394 45.6564 38.182 45.3761 38.5557 45.0959C38.3377 45.127 37.0297 45.2204 37.0608 43.1027C39.8638 42.0126 41.7012 40.7669 43.3207 38.836C43.7503 37.8638 44.084 36.8521 44.3173 35.8151C42.3864 38.8672 40.6423 40.6423 37.1543 42.0438C37.2822 41.293 37.4696 40.5536 37.7148 39.8326C38.7426 39.3966 39.8015 38.8983 40.4243 38.618L41.9504 37.0297C42.3552 35.566 42.6978 34.1022 43.0715 32.6073L41.8881 32.981L43.2895 31.5173C43.601 30.365 43.8813 29.2127 44.1616 28.0604C43.4764 28.1538 42.7601 28.2784 42.0749 28.3718C42.1995 27.7801 42.2618 27.2195 42.3241 26.6589C41.9815 26.5966 41.6389 26.472 41.2964 26.4409C41.2192 27.1544 41.0943 27.8619 40.9226 28.5587L40.8292 28.5898C40.1373 28.6934 39.4834 28.9722 38.9294 29.3995L39.1163 28.839C37.9951 29.0258 36.874 29.2438 35.7528 29.4618L34.6316 30.6453L34.6628 30.5207L35.0365 29.5864C33.9465 29.8355 32.8253 30.0535 31.7041 30.3027C31.4861 28.8078 31.237 27.4686 31.0501 26.3786L30.1158 26.472C30.3027 27.5932 30.5518 28.9635 30.801 30.4895L30.0224 30.6764L29.0258 31.7353C28.3406 30.9878 26.908 31.455 26.0049 31.673C25.0394 31.9221 24.074 32.2024 23.1085 32.4516C22.823 32.516 22.5421 32.5992 22.2676 32.7007C21.5198 31.6638 20.8534 30.5705 20.2745 29.4307L20.181 29.2127C19.9007 29.3372 19.6204 29.4307 19.309 29.5864L19.4336 29.8355C19.9877 30.9597 20.6226 32.0422 21.3333 33.0745C20.257 33.5428 19.2913 34.2325 18.4993 35.0988C18.4993 35.0988 17.129 36.5002 16.9732 36.6871C16.6343 37.0846 16.332 37.512 16.0701 37.964C14.5937 34.961 13.4451 31.8077 12.6443 28.5586C19.091 25.3197 24.8214 23.6068 32.1401 23.6068ZM32.8564 41.7012C33.5416 41.4209 34.1956 41.1095 34.8808 40.8292L35.1922 40.4866C35.3465 40.5125 35.503 40.5229 35.6594 40.5178C35.9786 40.4672 36.2917 40.3837 36.5937 40.2686C36.3917 40.9723 36.2459 41.6908 36.1577 42.4175C35.2234 42.7601 34.1333 43.1027 32.9187 43.4141C32.8876 42.8224 32.8876 42.2929 32.8564 41.7012ZM28.1849 43.819L28.8389 43.5075L30.4584 42.1995L30.8321 41.2341C31.0501 41.7012 31.1747 41.8881 31.4238 42.3552L31.9533 42.1061V43.601C30.7291 43.8931 29.4746 44.0395 28.2161 44.037L28.1849 43.819Z" fill="white"/>
<path id="Vector_5" d="M36.0954 26.0672C37.6251 26.0553 39.1541 26.1385 40.6735 26.3163C41.8202 26.5446 42.9534 26.8357 44.0681 27.1883C44.5096 28.7273 44.7298 30.3212 44.7221 31.9221C44.7208 33.2422 44.5746 34.5581 44.2861 35.8462C42.3552 38.8983 40.58 40.6423 37.1231 42.0438C37.251 41.293 37.4385 40.5536 37.6837 39.8326C38.7114 39.3966 39.7392 38.8983 40.3932 38.6492L41.9192 37.0608C42.2929 35.566 42.6667 34.1022 43.0404 32.6385L41.8569 33.0122L43.2584 31.5484C43.5387 30.3961 43.8501 29.2438 44.1304 28.0915C43.4453 28.1849 42.729 28.3095 42.0438 28.4029C42.1372 27.8112 42.2307 27.2506 42.2929 26.69C41.9504 26.5966 41.6078 26.5032 41.2652 26.4409C41.1883 27.1647 41.0634 27.8825 40.8915 28.5898L40.7981 28.6209C40.0891 28.6961 39.4177 28.9776 38.8672 29.4307L39.0852 28.8701C37.9329 29.057 36.8428 29.275 35.6905 29.493L34.6005 30.6453L34.6316 30.5518L35.0054 29.6175C33.8842 29.8667 32.7942 30.0847 31.673 30.3338C31.455 28.8078 31.2058 27.4686 31.019 26.3786C32.7023 26.1625 34.3982 26.0584 36.0954 26.0672ZM43.2895 38.8672C42.2092 41.2872 40.59 43.4284 38.5557 45.127C38.3377 45.1582 36.9985 45.2516 37.0297 43.1338C39.8326 42.0438 41.6701 40.7669 43.2895 38.8672ZM37.4346 45.9679C35.8583 47.0934 34.0985 47.9365 32.2336 48.4594C32.8564 47.1202 32.8876 44.7844 32.8876 44.3796C34.071 44.0681 35.1299 43.7567 36.1265 43.4453C36.1577 44.5353 36.5937 45.5942 37.4346 45.9679ZM30.7075 48.8019C30.1781 48.8954 29.6175 48.9577 29.0881 49.02C28.4964 48.4282 27.9046 47.8054 27.344 47.2136C27.9046 46.7153 28.2472 45.999 28.2783 44.9713C29.5144 44.9701 30.7466 44.8344 31.9533 44.5664C31.9221 46.4662 31.6418 47.8365 31.1124 48.3971C31.1083 48.397 31.1042 48.3977 31.1004 48.3993C31.0966 48.4008 31.0931 48.4031 31.0902 48.406C31.0873 48.4089 31.085 48.4124 31.0835 48.4162C31.0819 48.42 31.0812 48.4241 31.0813 48.4282C30.9255 48.5839 30.801 48.7085 30.7075 48.8019ZM26.7212 46.5285C26.3163 46.0613 25.9114 45.563 25.5377 45.0647L25.8803 44.909C26.4097 44.9401 26.8769 44.9713 27.344 44.9713C27.3323 45.5488 27.1109 46.1022 26.7212 46.5285ZM19.309 34.2579C18.7721 32.9229 18.3043 31.5612 17.9075 30.1781C18.3436 29.9601 18.7796 29.7732 19.2467 29.5864L19.3401 29.8355C19.9049 30.9603 20.5503 32.0427 21.271 33.0745C20.5626 33.3708 19.9016 33.7695 19.309 34.2579ZM20.0876 29.2127C23.2826 27.8879 26.6304 26.9672 30.0535 26.472C30.2404 27.5932 30.4895 28.9635 30.7075 30.4895L29.929 30.6764L28.9635 31.7353C28.2472 30.9878 26.8146 31.455 25.9426 31.673C24.9771 31.9221 24.0117 32.2024 23.0462 32.4516C22.7607 32.516 22.4798 32.5992 22.2054 32.7007C21.4676 31.6632 20.8116 30.5699 20.2433 29.4307L20.0876 29.2127ZM32.8564 41.7012C33.5416 41.4209 34.1956 41.1095 34.8808 40.8292L35.1922 40.4866C35.3465 40.5125 35.503 40.5229 35.6594 40.5178C35.9777 40.4634 36.2905 40.38 36.5937 40.2686C36.3768 40.9685 36.2307 41.6884 36.1577 42.4175C35.1922 42.7601 34.1333 43.1027 32.8876 43.4141C32.8876 42.8224 32.8876 42.2929 32.8564 41.7012ZM28.1849 43.819L28.8389 43.5076L30.4584 42.1995L30.8321 41.2341C31.0501 41.7012 31.1747 41.8881 31.4238 42.3553L31.9533 42.1372V43.6321C30.7264 43.909 29.4737 44.0552 28.2161 44.0681L28.1849 43.819Z" fill="#F05133"/>
<path id="Vector_6" d="M32.4827 53.0686C29.3978 50.9973 26.6106 48.514 24.1985 45.6876L25.5377 45.0647C25.9426 45.563 26.3474 46.0613 26.7523 46.5285C26.9434 46.7714 27.1516 47.0003 27.3752 47.2136C29.1553 49.1801 31.1271 50.9641 33.2613 52.5392C33.0116 52.7296 32.7517 52.9064 32.4827 53.0686ZM17.783 35.7217C16.8724 33.7151 16.1125 31.6435 15.5095 29.5241C20.8302 26.9865 26.6216 25.5864 32.5139 25.4131C35.2557 25.4364 37.9886 25.7285 40.6735 26.2852C39.1527 26.1237 37.6247 26.0405 36.0954 26.036C34.3879 26.0283 32.6817 26.1323 30.9878 26.3474C30.6764 26.3786 30.365 26.4409 30.0535 26.472C26.6317 26.9565 23.2837 27.8667 20.0876 29.1815C19.8073 29.3061 19.4959 29.4307 19.2156 29.5552C18.7796 29.7421 18.3436 29.9601 17.9075 30.1781C18.2846 31.5635 18.7421 32.9258 19.2779 34.2579C18.9976 34.5071 18.6861 34.7874 18.4058 35.0676L17.783 35.7217Z" fill="#FDBB30"/>
<path id="Vector_7" d="M11.056 27.8423C18.0633 24.2608 24.1985 22.2676 32.1713 22.2676C40.1129 22.2676 46.2793 24.2608 53.2866 27.8423C50.0166 40.9538 43.7878 49.674 32.1401 56.6501C27.7489 54.0029 23.9183 50.9197 20.7416 47.3382C19.8696 47.7742 19.1533 48.1168 18.7796 48.3037C17.6895 48.8642 16.5995 49.3937 15.5095 49.9543C14.2637 50.5771 12.8934 51.5426 11.4608 51.1689C9.90365 50.4837 10.9314 48.584 11.3985 47.5251C12.6131 44.8156 13.89 42.1061 15.1981 39.4278C13.5635 36.3698 12.3284 33.1146 11.5231 29.7421L11.056 27.8423ZM32.1401 23.6068C24.8214 23.6068 19.091 25.3197 12.582 28.5586C13.3636 31.7992 14.5021 34.9432 15.9766 37.9329C16.2496 37.4804 16.5623 37.0531 16.911 36.656C17.0667 36.5002 18.4058 35.0676 18.4058 35.0676C19.2117 34.2032 20.1871 33.5141 21.271 33.0433C20.5436 32.0159 19.8979 30.9329 19.3401 29.8044L19.2467 29.5552C19.527 29.4307 19.8073 29.3061 20.1187 29.1815L20.2122 29.3995C20.7803 30.5487 21.4363 31.6524 22.1742 32.7007C22.4545 32.6073 22.7348 32.5139 23.0462 32.4204C24.0117 32.1713 24.946 31.9221 25.9426 31.673C26.8146 31.4238 28.2472 30.9567 28.9324 31.7041L29.929 30.6453L30.7075 30.4895C30.4584 28.9324 30.2404 27.562 30.0224 26.472C30.3338 26.4409 30.6453 26.3786 30.9567 26.3474C31.1436 27.4375 31.3927 28.8078 31.6107 30.2715C32.7319 30.0535 33.8219 29.8044 34.9431 29.5864L34.5693 30.5207L34.5382 30.6141L35.6594 29.4307C36.7805 29.2438 37.8706 29.0258 39.0229 28.8078L38.836 29.3995C39.3838 28.9562 40.0393 28.666 40.7358 28.5586H40.8292C41.0102 27.8518 41.1454 27.134 41.2341 26.4097C41.5766 26.472 41.9192 26.5655 42.2307 26.6277C42.1957 27.2047 42.1124 27.7777 41.9815 28.3406C42.6978 28.2472 43.383 28.1538 44.0993 28.0292C43.7878 29.1815 43.5075 30.365 43.2273 31.5173L41.8258 32.981L43.0092 32.6073C42.6044 34.071 42.2307 35.5348 41.8881 37.0297L40.362 38.618C39.708 38.8983 38.6492 39.3966 37.6526 39.8014C37.411 40.5235 37.2236 41.2627 37.092 42.0126C40.5489 40.6112 42.3241 38.836 44.255 35.8151C44.0064 36.8516 43.6623 37.8629 43.2273 38.836C41.6078 40.7357 39.8015 42.0126 36.9674 43.0715C36.9363 45.2204 38.3066 45.127 38.4934 45.0647C38.1467 45.3793 37.7713 45.6608 37.3723 45.9056C36.5314 45.5319 36.0954 44.473 36.0642 43.383C35.0988 43.7255 34.0399 44.0058 32.8253 44.3173C32.7942 44.7221 32.7942 47.0579 32.1713 48.3971C31.6689 48.5375 31.1595 48.6519 30.6453 48.7397C30.7672 48.6335 30.8816 48.519 30.9878 48.3971L31.019 48.3659C31.5796 47.8054 31.8287 46.435 31.891 44.5353C30.6823 44.7951 29.452 44.9411 28.2161 44.9713C28.1849 45.999 27.8423 46.7153 27.2818 47.1825C27.0638 46.9645 26.8769 46.7465 26.6589 46.5285C27.0334 46.0953 27.243 45.5439 27.2506 44.9713C26.8146 44.9401 26.3163 44.909 25.818 44.8779C24.5723 45.4696 23.1397 46.1547 21.8939 46.7153C24.8724 49.9609 28.3022 52.7613 32.0779 55.0307C42.6355 48.5216 48.4282 40.4866 51.6049 28.5275C45.1893 25.3197 39.4589 23.6068 32.1401 23.6068ZM32.8565 41.7012C32.8876 42.2929 32.8876 42.8224 32.8876 43.383C34.1333 43.0715 35.1922 42.7601 36.1577 42.4175C36.2333 41.6786 36.3793 40.9486 36.5937 40.2375C36.2905 40.3488 35.9777 40.4322 35.6594 40.4866C35.5052 40.5181 35.3463 40.5181 35.1922 40.4866L34.8808 40.7981C34.1956 41.1095 33.5416 41.4209 32.8565 41.7012ZM28.1849 43.819L28.2161 44.037C29.4746 44.0395 30.7291 43.8931 31.9533 43.601V42.1061L31.4238 42.3552C31.1747 41.8881 31.0813 41.7012 30.8321 41.2341L30.4584 42.1995L28.8389 43.5075L28.1849 43.819Z" fill="#002D62"/>
<path id="Vector_8" d="M23.1397 32.981C21.4891 33.4482 20.0253 34.1333 18.8419 35.4414C18.1982 36.2222 17.6542 37.08 17.2224 37.9951C15.9144 40.7046 14.6375 43.4141 13.4229 46.1236C13.1114 46.8399 12.146 48.5528 13.1737 49.02C14.326 49.3002 15.7586 48.3348 16.7552 47.8365C17.8453 47.2759 18.9664 46.7153 20.0564 46.1859C21.9251 45.2516 23.6068 44.1304 24.7591 42.3241C25.177 41.5355 25.5513 40.7245 25.8803 39.8949C26.5966 38.1197 27.3129 36.3757 28.0603 34.6317C28.3406 33.9465 28.8389 33.1368 28.6832 32.4205C28.3718 31.455 26.7212 32.0467 26.036 32.2336C25.0706 32.4827 24.1051 32.7319 23.1397 32.981ZM21.053 43.0404C20.181 43.4453 19.3401 43.819 18.4681 44.2238C19.7139 41.3275 21.0219 38.4311 22.3922 35.5348C23.1397 35.3168 23.9183 35.0365 24.6968 34.8185C23.42 37.5591 22.2054 40.2998 21.053 43.0404ZM35.9708 29.9601C34.7562 31.5484 33.5728 33.1368 32.3893 34.7251C32.9499 33.2925 33.5105 31.8287 34.0711 30.365C32.8253 30.6141 31.5484 30.8944 30.3338 31.1747C29.9912 31.9221 29.6798 32.6696 29.3684 33.4482C29.6237 33.3611 29.8836 33.2883 30.147 33.2302C29.1815 35.5971 28.2161 37.964 27.2818 40.362C26.8769 41.3275 26.5032 42.3241 26.1294 43.2895C27.3752 42.6978 28.6521 42.1061 29.8978 41.5455C30.4584 39.9572 31.019 38.4 31.6107 36.8117C32.1402 37.9017 32.6696 38.9606 33.199 40.0195C34.0088 39.6769 34.8185 39.3032 35.6282 38.9606C35.1299 37.8394 34.6316 36.7183 34.1333 35.5971C35.0365 34.2268 35.9397 32.8565 36.8428 31.5173C37.092 31.455 37.3723 31.4238 37.6214 31.3616C37.8394 30.7698 38.0263 30.1781 38.2131 29.5864C37.4657 29.711 36.7183 29.8355 35.9708 29.9601ZM40.8292 29.1504C40.1557 29.2408 39.5257 29.5341 39.0229 29.9913C38.6453 30.4351 38.369 30.9558 38.2131 31.5173C37.6837 33.199 37.1543 34.8808 36.5937 36.5625C36.3757 37.2165 36.0331 38.4312 37.092 38.3689C37.4598 38.2913 37.8158 38.1656 38.1509 37.9951C39.2409 37.528 40.3309 37.092 41.4209 36.656C41.6701 35.5971 41.9504 34.5382 42.2307 33.4793C41.6701 33.635 41.1095 33.8219 40.5178 34.0088C40.362 34.5071 40.2375 34.9742 40.1129 35.4725C39.708 35.5971 39.3032 35.7528 38.9294 35.8774C39.4277 34.1645 39.8949 32.4827 40.4243 30.7698C40.7669 30.6764 41.1095 30.6141 41.4521 30.5207C41.3876 30.8266 41.3044 31.1282 41.2029 31.4238C41.7324 31.2993 42.2307 31.1747 42.7601 31.0501C42.947 30.3027 43.1338 29.5241 43.3207 28.7455C42.511 28.8701 41.6701 29.0258 40.8292 29.1504Z" fill="white"/>
<path id="Vector_9" d="M45.3762 27.562C45.8745 27.7489 46.3728 27.9046 46.8711 28.0915C48.0545 28.5586 49.1134 28.9946 50.0165 29.4307C47.3861 38.6171 41.6939 46.6281 33.8842 52.1343L33.2613 52.5703C31.9788 51.6132 30.7518 50.5838 29.5864 49.4871L30.6764 49.3314C35.2582 48.5544 39.3464 45.9958 42.0481 42.2146C44.7498 38.4334 45.8455 33.7368 45.0959 29.1504C45.0647 29.0258 45.0336 28.9012 45.0024 28.7767L44.9713 28.6521L44.9401 28.6209L44.8156 28.1849L44.7844 28.1226L44.7533 27.9981L44.7221 27.9669V27.9046C44.6889 27.7232 44.6368 27.5457 44.5664 27.3752C44.8393 27.4236 45.1096 27.486 45.3762 27.562Z" fill="#007AC1"/>
</g>
<defs>
<clipPath id="clip0_3071_90551">
<rect width="64" height="58.9548" fill="white"/>
</clipPath>
</defs>
</svg>
