<svg preserveAspectRatio="none" overflow="visible" style="display: block;" width="9.55699" height="9.15414" viewBox="0 0 9.55699 9.15414" fill="none" xmlns="http://www.w3.org/2000/svg">
<path id="Icon" d="M4.4497 0.835852C4.55534 0.621838 4.60816 0.514832 4.67987 0.480643C4.74225 0.450897 4.81473 0.450897 4.87712 0.480643C4.94883 0.514832 5.00165 0.621838 5.10729 0.835852L6.10951 2.86625C6.1407 2.92944 6.15629 2.96103 6.17908 2.98555C6.19926 3.00727 6.22346 3.02487 6.25034 3.03737C6.2807 3.05148 6.31556 3.05658 6.38528 3.06677L8.62711 3.39445C8.86318 3.42895 8.98122 3.44621 9.03584 3.50387C9.08337 3.55403 9.10572 3.62297 9.09668 3.69148C9.08628 3.77022 9.00082 3.85346 8.82991 4.01992L7.20832 5.59936C7.15777 5.64859 7.13249 5.67321 7.11618 5.7025C7.10174 5.72844 7.09248 5.75693 7.0889 5.7864C7.08487 5.81968 7.09083 5.85445 7.10276 5.924L7.48538 8.15489C7.52574 8.39018 7.54592 8.50783 7.508 8.57764C7.475 8.63839 7.41636 8.68099 7.34839 8.69359C7.27027 8.70807 7.16462 8.65251 6.95333 8.5414L4.94916 7.48742C4.88671 7.45458 4.85549 7.43816 4.8226 7.43171C4.79347 7.426 4.76352 7.426 4.73439 7.43171C4.7015 7.43816 4.67027 7.45458 4.60783 7.48742L2.60366 8.5414C2.39236 8.65251 2.28672 8.70807 2.2086 8.69359C2.14063 8.68099 2.08198 8.63839 2.04899 8.57764C2.01107 8.50783 2.03125 8.39018 2.0716 8.15489L2.45423 5.924C2.46615 5.85445 2.47212 5.81968 2.46808 5.7864C2.46451 5.75693 2.45525 5.72844 2.44081 5.7025C2.4245 5.67321 2.39922 5.64859 2.34867 5.59936L0.727076 4.01992C0.556165 3.85346 0.47071 3.77022 0.460311 3.69148C0.451264 3.62297 0.473615 3.55403 0.521143 3.50387C0.575769 3.44621 0.693807 3.42895 0.929882 3.39445L3.17171 3.06677C3.24143 3.05658 3.27629 3.05148 3.30665 3.03737C3.33353 3.02487 3.35773 3.00727 3.3779 2.98555C3.40069 2.96103 3.41629 2.92944 3.44747 2.86625L4.4497 0.835852Z" fill="#090707" stroke="#090707" stroke-width="0.916667" stroke-linecap="round" stroke-linejoin="round"/>
</svg>
